Coordinates
version=1
nRows=13
nColumns=63
inDegrees=yes

Units are S.I. units (second, meters, Newtons, ...)
If the header above contains a line with 'inDegrees', this indicates whether rotational values are in degrees (yes) or radians (no).

endheader
time	pelvis_tilt	pelvis_list	pelvis_rotation	pelvis_tx	pelvis_ty	pelvis_tz	hip_flexion_r	hip_adduction_r	hip_rotation_r	knee_angle_r	knee_angle_r_beta	ankle_angle_r	subtalar_angle_r	mtp_angle_r	hip_flexion_l	hip_adduction_l	hip_rotation_l	knee_angle_l	knee_angle_l_beta	ankle_angle_l	subtalar_angle_l	mtp_angle_l	L5_S1_Flex_Ext	L5_S1_Lat_Bending	L5_S1_axial_rotation	L4_L5_Flex_Ext	L4_L5_Lat_Bending	L4_L5_axial_rotation	L3_L4_Flex_Ext	L3_L4_Lat_Bending	L3_L4_axial_rotation	L2_L3_Flex_Ext	L2_L3_Lat_Bending	L2_L3_axial_rotation	L1_L2_Flex_Ext	L1_L2_Lat_Bending	L1_L2_axial_rotation	L1_T12_Flex_Ext	L1_T12_Lat_Bending	L1_T12_axial_rotation	Abs_r3	Abs_r2	Abs_r1	Abs_t1	Abs_t2	neck_flexion	neck_bending	neck_rotation	arm_flex_r	arm_add_r	arm_rot_r	elbow_flex_r	pro_sup_r	wrist_flex_r	wrist_dev_r	arm_flex_l	arm_add_l	arm_rot_l	elbow_flex_l	pro_sup_l	wrist_flex_l	wrist_dev_l
3.471698	6.708708	-4.902557	90.968591	0.418965	0.704021	0.764404	13.664998	2.585071	-2.561343	9.526195	0.166263	30.762968	-4.345306	0.000000	10.907782	-2.073126	-3.560797	5.954616	0.103928	31.007407	14.134815	0.000000	0.360773	0.325383	-0.464100	0.669991	0.432760	-0.493106	0.592714	0.791137	-0.493106	0.412327	0.791137	-0.406087	0.335014	0.663522	-0.377081	0.206146	0.504019	-0.348075	2.576964	3.680800	-2.581184	0.000000	0.000000	27.659842	-0.446485	18.543033	16.364327	-14.276710	76.370032	44.019738	36.532758	6.264814	5.501081	7.092500	-9.518678	50.811350	45.784573	73.658749	6.012622	3.159741
3.490566	6.818017	-4.852670	90.997100	0.419116	0.703978	0.764497	13.554512	2.685829	-2.856154	9.368354	0.163509	30.796103	-4.006500	0.000000	10.842351	-2.225020	-3.483553	5.954712	0.103929	31.034412	14.311184	0.000000	0.348165	0.339564	-0.481256	0.646578	0.451620	-0.511335	0.572001	0.825615	-0.511335	0.397918	0.825615	-0.421099	0.323306	0.692438	-0.391021	0.198942	0.525984	-0.360942	2.486909	3.841212	-2.676602	0.000000	0.000000	27.561432	-0.091264	19.217231	16.719464	-14.399096	76.804413	44.322453	35.988738	6.081874	5.549162	7.039241	-9.428300	50.305140	45.856265	74.868706	6.255047	3.354520
3.509434	6.875706	-4.795463	91.068347	0.419228	0.703915	0.764504	13.426956	2.734494	-3.058212	9.270897	0.161808	30.655210	-3.977424	0.000000	10.768187	-2.298322	-3.164600	5.943510	0.103734	30.983520	14.180041	0.000000	0.338705	0.346748	-0.503465	0.629009	0.461175	-0.534932	0.556458	0.843083	-0.534932	0.387106	0.843083	-0.440532	0.314521	0.707089	-0.409065	0.193536	0.537113	-0.377599	2.419336	3.922484	-2.800122	0.000000	0.000000	27.478643	0.172321	19.916602	17.104818	-14.501386	77.380488	44.619960	35.125578	5.952463	5.611926	7.032247	-9.371162	49.950151	45.892280	75.980793	6.607788	3.522740
3.528302	6.871316	-4.718527	91.206898	0.419275	0.703869	0.764372	13.261627	2.724963	-3.100521	9.224180	0.160992	30.334648	-4.383140	0.000000	10.656563	-2.275372	-2.510718	5.891375	0.102824	30.818458	13.642177	0.000000	0.330842	0.345082	-0.534541	0.614406	0.458959	-0.567950	0.543540	0.839033	-0.567950	0.378119	0.839033	-0.467724	0.307220	0.703691	-0.434315	0.189043	0.534532	-0.400906	2.363169	3.903638	-2.972958	0.000000	0.000000	27.417742	0.293440	20.580006	17.495798	-14.546437	78.081207	44.872724	33.893318	5.838381	5.739457	7.013297	-9.308788	49.515970	45.869178	77.279224	7.171521	3.691137
3.547170	6.816238	-4.645948	91.428484	0.419221	0.703838	0.764037	13.081204	2.660575	-3.065860	9.219829	0.160916	29.895539	-5.087961	0.000000	10.558996	-2.189479	-2.009890	5.859345	0.102265	30.661692	13.386378	0.000000	0.329572	0.335768	-0.562433	0.612049	0.446571	-0.597585	0.541454	0.816386	-0.597585	0.376668	0.816386	-0.492129	0.306041	0.684698	-0.456977	0.188318	0.520105	-0.421825	2.354102	3.798274	-3.128082	0.000000	0.000000	27.383995	0.218403	21.152245	17.707428	-14.561631	78.481404	45.053323	32.871573	5.770662	5.885114	7.069593	-9.251874	49.356575	45.749787	77.918068	7.831601	3.821431
3.566038	6.731634	-4.566924	91.767319	0.418965	0.703851	0.763493	12.880061	2.550075	-3.047563	9.256465	0.161556	29.408338	-5.975180	0.000000	10.452205	-2.039865	-1.323088	5.817258	0.101530	30.454055	13.003836	0.000000	0.332527	0.322577	-0.599660	0.617537	0.429028	-0.637139	0.546309	0.784314	-0.637139	0.380046	0.784314	-0.524703	0.308785	0.657800	-0.487224	0.190006	0.499672	-0.449745	2.375210	3.649059	-3.335130	0.000000	0.000000	27.378314	0.000163	21.770133	17.801906	-14.543804	78.798404	45.142951	31.702688	5.737171	5.938535	7.164995	-9.181626	49.346511	45.548910	77.883673	8.561265	3.868569
3.584906	6.618377	-4.484624	92.210827	0.418482	0.703923	0.762743	12.672526	2.387761	-3.110072	9.338446	0.162987	28.948806	-6.891502	0.000000	10.331808	-1.826276	-0.445862	5.753708	0.100421	30.193014	12.456629	0.000000	0.339876	0.306107	-0.646834	0.631184	0.407122	-0.687261	0.558383	0.744268	-0.687261	0.388445	0.744268	-0.565979	0.315609	0.624213	-0.525552	0.194205	0.474160	-0.485125	2.427702	3.462743	-3.597494	0.000000	0.000000	27.399984	-0.354808	22.430602	17.792167	-14.485136	79.062742	45.119403	30.512918	5.669495	5.854991	7.275523	-9.104550	49.404175	45.308862	77.168929	9.266494	3.834866
3.603774	6.499641	-4.392443	92.738921	0.417766	0.704075	0.761798	12.461790	2.211732	-3.138684	9.463098	0.165162	28.512065	-7.946514	0.000000	10.201036	-1.590087	0.381768	5.692233	0.099348	29.942622	12.040391	0.000000	0.350126	0.289803	-0.697245	0.650219	0.385437	-0.740823	0.575222	0.704626	-0.740823	0.400159	0.704626	-0.610089	0.325127	0.590965	-0.566512	0.200062	0.448904	-0.522934	2.500915	3.278305	-3.877868	0.000000	0.000000	27.446417	-0.848438	23.104926	17.622653	-14.398252	79.086678	44.975018	29.529129	5.583117	5.676561	7.405109	-8.999417	49.484168	45.020221	76.005979	9.842268	3.623137
3.622642	6.375486	-4.276437	93.342151	0.416787	0.704328	0.760672	12.230931	2.015820	-3.244160	9.614301	0.167801	28.151615	-8.944933	0.000000	10.031811	-1.325962	1.313602	5.605893	0.097841	29.678058	11.540270	0.000000	0.361091	0.274356	-0.751483	0.670582	0.364893	-0.798451	0.593236	0.667068	-0.798451	0.412691	0.667068	-0.657548	0.335309	0.559466	-0.610580	0.206327	0.424977	-0.563612	2.579236	3.103566	-4.179522	0.000000	0.000000	27.513354	-1.489838	23.751941	17.342487	-14.284802	78.994987	44.697762	28.666701	5.430162	5.346561	7.563413	-8.888445	49.625328	44.713674	74.405490	10.140480	3.256622
3.641509	6.254689	-4.137133	94.007831	0.415534	0.704663	0.759392	11.988634	1.808369	-3.428851	9.800511	0.171051	27.883273	-9.865632	0.000000	9.830964	-1.045180	2.328805	5.509072	0.096151	29.416750	10.962351	0.000000	0.372391	0.261817	-0.809650	0.691567	0.348216	-0.860253	0.611801	0.636581	-0.860253	0.425606	0.636581	-0.708443	0.345802	0.533896	-0.657840	0.212784	0.405554	-0.607237	2.659951	2.961721	-4.503028	0.000000	0.000000	27.595294	-2.275817	24.395509	16.964555	-14.156229	78.753312	44.290507	27.981142	5.259311	4.953738	7.732146	-8.768403	49.770390	44.421336	72.686208	10.008846	2.822217
3.660377	6.138574	-3.958670	94.752054	0.413985	0.705100	0.757952	11.702617	1.589325	-3.789533	9.993514	0.174420	27.722284	-10.588822	0.000000	9.574637	-0.753827	3.438398	5.386794	0.094017	29.150329	10.325578	0.000000	0.382097	0.252270	-0.876452	0.709592	0.335519	-0.931230	0.627747	0.613369	-0.931230	0.436698	0.613369	-0.766895	0.354815	0.514429	-0.712117	0.218330	0.390766	-0.657339	2.729280	2.853726	-4.874562	0.000000	0.000000	27.684795	-3.198546	25.015191	16.540971	-14.027822	78.517204	43.767602	27.356035	5.032772	4.405651	7.923298	-8.656925	49.961419	44.133087	70.801631	9.393442	2.345839
3.679245	6.031517	-3.754561	95.545171	0.412213	0.705602	0.756409	11.401470	1.375615	-4.224983	10.212576	0.178243	27.649265	-11.236174	0.000000	9.290619	-0.476319	4.446489	5.270847	0.091994	28.914605	9.855782	0.000000	0.389872	0.247500	-0.954045	0.724031	0.329176	-1.013673	0.640520	0.601772	-1.013673	0.445584	0.601772	-0.834790	0.362035	0.504703	-0.775162	0.222773	0.383378	-0.715534	2.784815	2.799774	-5.306115	0.000000	0.000000	27.776628	-4.119806	25.899497	16.090618	-13.917172	78.206536	43.160119	27.068644	4.756370	3.764101	8.068588	-8.524950	49.914120	43.857404	69.317523	8.281871	1.898099
3.698113	5.925766	-3.526629	96.379422	0.410282	0.706153	0.754794	11.080098	1.156584	-4.799806	10.442540	0.182257	27.683295	-11.711589	0.000000	8.973384	-0.205794	5.367142	5.143226	0.089766	28.701742	9.545322	0.000000	0.395696	0.245127	-1.041579	0.734846	0.326019	-1.106678	0.650088	0.596001	-1.106678	0.452241	0.596001	-0.911382	0.367443	0.499862	-0.846283	0.226101	0.379701	-0.781184	2.826415	2.772923	-5.792950	0.000000	0.000000	27.863236	-5.008287	27.004756	15.639500	-13.839978	77.891107	42.494374	27.089751	4.317632	2.947138	8.200383	-8.400238	49.686250	43.574930	68.064440	6.629170	1.438323
